<svg width="24.000000" height="24.000000" viewBox="0 0 24 24" fill="none" xmlns="http://www.w3.org/2000/svg" xmlns:xlink="http://www.w3.org/1999/xlink">
	<desc>
			Created with Pixso.
	</desc>
	<defs>
		<clipPath id="clip64_1623">
			<rect id="professional-info-icon" width="24.000000" height="24.000000" transform="translate(0.000000 -0.348145)" fill="white" fill-opacity="0"/>
		</clipPath>
	</defs>
	<g opacity="0.400000">
		<rect id="professional-info-icon" width="24.000000" height="24.000000" transform="translate(0.000000 -0.348145)" fill="#FFFFFF" fill-opacity="0"/>
		<g clip-path="url(#clip64_1623)">
			<path id="Vector" d="M3 2.65L21 2.65C21.26 2.65 21.51 2.75 21.7 2.94C21.89 3.13 22 3.38 22 3.65L22 19.65C22 19.91 21.89 20.17 21.7 20.35C21.51 20.54 21.26 20.65 21 20.65L3 20.65C2.73 20.65 2.48 20.54 2.29 20.35C2.1 20.17 2 19.91 2 19.65L2 3.65C2 3.38 2.1 3.13 2.29 2.94C2.48 2.75 2.73 2.65 3 2.65ZM12 14.65L12 16.65L18 16.65L18 14.65L12 14.65ZM8.41 11.65L5.58 14.47L7 15.89L11.24 11.65L7 7.4L5.58 8.82L8.41 11.65Z" fill="#607B96" fill-opacity="1.000000" fill-rule="nonzero"/>
		</g>
	</g>
</svg>
