<svg width="52.000000" height="49.000000" viewBox="0 0 52 49" fill="none" xmlns="http://www.w3.org/2000/svg" xmlns:xlink="http://www.w3.org/1999/xlink">
	<desc>
			Created with Pixso.
	</desc>
	<defs>
		<clipPath id="clip61_923">
			<rect id="Frame" width="24.000000" height="24.000000" transform="translate(14.000000 12.500000)" fill="white" fill-opacity="0"/>
		</clipPath>
	</defs>
	<rect id="Property 1=Github" width="52.000000" height="49.000000" fill="#C4C4C4" fill-opacity="0"/>
	<rect id="Frame" width="24.000000" height="24.000000" transform="translate(14.000000 12.500000)" fill="#607B96" fill-opacity="0"/>
	<g clip-path="url(#clip61_923)">
		<path id="Vector" d="M26 14.5C20.47 14.5 16 18.97 16 24.5C15.99 26.59 16.65 28.64 17.88 30.34C19.11 32.05 20.84 33.32 22.83 33.98C23.33 34.07 23.52 33.77 23.52 33.51C23.52 33.27 23.51 32.48 23.51 31.65C21 32.11 20.35 31.03 20.15 30.47C20.03 30.18 19.54 29.3 19.12 29.06C18.77 28.87 18.27 28.41 19.11 28.4C19.9 28.38 20.46 29.12 20.65 29.42C21.55 30.93 22.98 30.51 23.56 30.25C23.65 29.6 23.91 29.16 24.2 28.91C21.97 28.66 19.65 27.8 19.65 23.97C19.65 22.88 20.03 21.98 20.67 21.28C20.57 21.03 20.22 20.01 20.77 18.63C20.77 18.63 21.61 18.37 23.52 19.66C24.33 19.43 25.18 19.32 26.02 19.32C26.87 19.32 27.72 19.43 28.52 19.66C30.43 18.36 31.27 18.63 31.27 18.63C31.82 20.01 31.47 21.03 31.37 21.28C32.01 21.98 32.4 22.87 32.4 23.97C32.4 27.81 30.06 28.66 27.83 28.91C28.2 29.22 28.51 29.82 28.51 30.76C28.51 32.09 28.5 33.17 28.5 33.51C28.5 33.77 28.68 34.08 29.18 33.98C31.17 33.31 32.89 32.04 34.11 30.33C35.34 28.63 35.99 26.59 36 24.5C36 18.97 31.52 14.5 26 14.5Z" fill="#607B96" fill-opacity="1.000000" fill-rule="nonzero"/>
	</g>
</svg>
