<svg width="52.000000" height="49.000000" viewBox="0 0 52 49" fill="none" xmlns="http://www.w3.org/2000/svg" xmlns:xlink="http://www.w3.org/1999/xlink">
	<desc>
			Created with Pixso.
	</desc>
	<defs>
		<clipPath id="clip41_208">
			<rect id="Frame" width="24.000000" height="24.000000" transform="translate(14.000000 12.500000)" fill="white" fill-opacity="0"/>
		</clipPath>
	</defs>
	<rect id="Property 1=Twitter" width="52.000000" height="49.000000" fill="#C4C4C4" fill-opacity="0"/>
	<rect id="Frame" width="24.000000" height="24.000000" transform="translate(14.000000 12.500000)" fill="#607B96" fill-opacity="0"/>
	<g clip-path="url(#clip41_208)">
		<path id="Vector" d="M36.38 18.15C35.61 18.49 34.81 18.71 33.98 18.81C34.85 18.29 35.5 17.46 35.82 16.5C35 16.98 34.1 17.33 33.16 17.51C32.53 16.84 31.7 16.39 30.79 16.24C29.88 16.09 28.94 16.24 28.13 16.68C27.32 17.11 26.67 17.8 26.29 18.64C25.91 19.48 25.82 20.43 26.03 21.32C24.37 21.24 22.74 20.81 21.26 20.06C19.77 19.3 18.46 18.25 17.41 16.95C17.04 17.59 16.85 18.32 16.85 19.06C16.85 20.51 17.59 21.79 18.71 22.54C18.04 22.52 17.39 22.34 16.81 22.02L16.81 22.07C16.81 23.03 17.15 23.97 17.76 24.72C18.37 25.46 19.22 25.98 20.17 26.17C19.55 26.34 18.91 26.36 18.28 26.24C18.55 27.07 19.07 27.8 19.77 28.32C20.47 28.84 21.31 29.13 22.19 29.15C21.32 29.83 20.33 30.33 19.26 30.63C18.2 30.92 17.09 31.01 16 30.88C17.91 32.11 20.13 32.76 22.41 32.76C30.1 32.76 34.31 26.38 34.31 20.86C34.31 20.68 34.3 20.5 34.29 20.32C35.11 19.73 35.82 18.99 36.38 18.15L36.38 18.15Z" fill="#607B96" fill-opacity="1.000000" fill-rule="nonzero"/>
	</g>
</svg>
