<svg width="" height="24" viewBox="0 0 24 24" fill="none" xmlns="http://www.w3.org/2000/svg" xmlns:xlink="http://www.w3.org/1999/xlink">
<g id = "face_book">
	<defs>
		<clipPath id="clip41_211">
			<rect id="Frame" width="24.000000" height="24.000000" transform="translate(14.000000 12.500000)" fill="white" fill-opacity="0"/>
		</clipPath>
	</defs>
	<rect id="Property 1=Facebook" width="24.000000" height="24.000000" fill="#C4C4C4" fill-opacity="0"/>
	<rect id="Frame" width="24.000000" height="24.000000" transform="translate(14.000000 12.500000)" fill="#607B96" fill-opacity="0"/>
	<g clip-path="url(#clip41_211)">
		<path id="Vector" d="M28 26L30.5 26L31.5 22L28 22L28 20C28 18.96 28 18 30 18L31.5 18L31.5 14.64C31.17 14.59 29.94 14.5 28.64 14.5C25.92 14.5 24 16.15 24 19.2L24 22L21 22L21 26L24 26L24 34.5L28 34.5L28 26Z" fill="#607B96" fill-opacity="1.000000" fill-rule="nonzero"/>
	</g>
</g>
	<g id = "git_hub">
		<defs>
			<clipPath id="clip61_923">
				<rect id="Frame" width="24.000000" height="24.000000" transform="translate(14.000000 12.500000)" fill="white" fill-opacity="0"/>
			</clipPath>
		</defs>
		<rect id="Property 1=Github" width="24.000000" height="24.000000" fill="#C4C4C4" fill-opacity="0"/>
		<rect id="Frame" width="24.000000" height="24.000000" transform="translate(14.000000 12.500000)" fill="#607B96" fill-opacity="0"/>
			<g clip-path="url(#clip61_923)">
			<path id="Vector" d="M26 14.5C20.47 14.5 16 18.97 16 24.5C15.99 26.59 16.65 28.64 17.88 30.34C19.11 32.05 20.84 33.32 22.83 33.98C23.33 34.07 23.52 33.77 23.52 33.51C23.52 33.27 23.51 32.48 23.51 31.65C21 32.11 20.35 31.03 20.15 30.47C20.03 30.18 19.54 29.3 19.12 29.06C18.77 28.87 18.27 28.41 19.11 28.4C19.9 28.38 20.46 29.12 20.65 29.42C21.55 30.93 22.98 30.51 23.56 30.25C23.65 29.6 23.91 29.16 24.2 28.91C21.97 28.66 19.65 27.8 19.65 23.97C19.65 22.88 20.03 21.98 20.67 21.28C20.57 21.03 20.22 20.01 20.77 18.63C20.77 18.63 21.61 18.37 23.52 19.66C24.33 19.43 25.18 19.32 26.02 19.32C26.87 19.32 27.72 19.43 28.52 19.66C30.43 18.36 31.27 18.63 31.27 18.63C31.82 20.01 31.47 21.03 31.37 21.28C32.01 21.98 32.4 22.87 32.4 23.97C32.4 27.81 30.06 28.66 27.83 28.91C28.2 29.22 28.51 29.82 28.51 30.76C28.51 32.09 28.5 33.17 28.5 33.51C28.5 33.77 28.68 34.08 29.18 33.98C31.17 33.31 32.89 32.04 34.11 30.33C35.34 28.63 35.99 26.59 36 24.5C36 18.97 31.52 14.5 26 14.5Z" fill="#607B96" fill-opacity="1.000000" fill-rule="nonzero"/>
			</g>
		<defs/>
	</g>
	<g id = "twitter">
	<path id="Vector" d="M19.38 1.15C18.61 1.49 17.81 1.71 16.98 1.81C17.85 1.29 18.5 0.46 18.82 -0.5C18 -0.02 17.1 0.32 16.16 0.51C15.53 -0.16 14.7 -0.61 13.79 -0.76C12.88 -0.91 11.94 -0.76 11.13 -0.32C10.32 0.11 9.67 0.8 9.29 1.64C8.91 2.48 8.82 3.43 9.03 4.32C7.37 4.24 5.74 3.81 4.26 3.06C2.77 2.3 1.46 1.25 0.41 -0.05C0.04 0.59 -0.15 1.32 -0.15 2.06C-0.15 3.51 0.59 4.79 1.71 5.54C1.04 5.52 0.39 5.34 -0.19 5.01L-0.19 5.07C-0.19 6.03 0.15 6.97 0.76 7.72C1.37 8.46 2.22 8.98 3.17 9.17C2.55 9.34 1.91 9.36 1.28 9.24C1.55 10.07 2.07 10.8 2.77 11.32C3.47 11.84 4.31 12.13 5.19 12.15C4.32 12.83 3.33 13.33 2.26 13.63C1.2 13.92 0.09 14.01 -1 13.88C0.91 15.11 3.13 15.76 5.41 15.76C13.1 15.76 17.31 9.38 17.31 3.86C17.31 3.68 17.3 3.5 17.29 3.32C18.11 2.73 18.82 1.99 19.38 1.15L19.38 1.15Z" fill="#607B96" fill-opacity="1.000000" fill-rule="nonzero"/>
	</g>
</svg>