<svg width="20.000000" height="16.000000" viewBox="0 0 20 16" fill="none" xmlns="http://www.w3.org/2000/svg" xmlns:xlink="http://www.w3.org/1999/xlink">
	<desc>
			Created with Pixso.
	</desc>
	<defs/>
	<path id="Vector" d="M19.38 1.15C18.61 1.49 17.81 1.71 16.98 1.81C17.85 1.29 18.5 0.46 18.82 -0.5C18 -0.02 17.1 0.32 16.16 0.51C15.53 -0.16 14.7 -0.61 13.79 -0.76C12.88 -0.91 11.94 -0.76 11.13 -0.32C10.32 0.11 9.67 0.8 9.29 1.64C8.91 2.48 8.82 3.43 9.03 4.32C7.37 4.24 5.74 3.81 4.26 3.06C2.77 2.3 1.46 1.25 0.41 -0.05C0.04 0.59 -0.15 1.32 -0.15 2.06C-0.15 3.51 0.59 4.79 1.71 5.54C1.04 5.52 0.39 5.34 -0.19 5.01L-0.19 5.07C-0.19 6.03 0.15 6.97 0.76 7.72C1.37 8.46 2.22 8.98 3.17 9.17C2.55 9.34 1.91 9.36 1.28 9.24C1.55 10.07 2.07 10.8 2.77 11.32C3.47 11.84 4.31 12.13 5.19 12.15C4.32 12.83 3.33 13.33 2.26 13.63C1.2 13.92 0.09 14.01 -1 13.88C0.91 15.11 3.13 15.76 5.41 15.76C13.1 15.76 17.31 9.38 17.31 3.86C17.31 3.68 17.3 3.5 17.29 3.32C18.11 2.73 18.82 1.99 19.38 1.15L19.38 1.15Z" fill="#607B96" fill-opacity="1.000000" fill-rule="nonzero"/>
</svg>
